# AST/ASF file generated using VICON BodyLanguage
# -----------------------------------------------
:version 1.10
:name VICON
:units
  mass 1.0
  length 0.45
  angle deg
:documentation
   .ast/.asf automatically generated from VICON data using
   VICON BodyBuilder and BodyLanguage model FoxedUp or BRILLIANT.MOD
:root
   order TX TY TZ RX RY RZ
   axis XYZ
   position 0 0 0  
   orientation 0 0 0 
:bonedata
  begin
     id 1 
     name lhipjoint
     direction 0.690799 -0.707083 0.151096 
     length 2.54797 
     axis 0 0 0  XYZ
  end
  begin
     id 2 
     name lfemur
     direction 0.34202 -0.939693 0  
     length 7.21646  
     axis 0 0 20  XYZ
    dof rx ry rz
    limits (-160.0 20.0)
           (-70.0 70.0)
           (-60.0 70.0)
  end
  begin
     id 3 
     name ltibia
     direction 0.34202 -0.939693 0   
     length 8.16759   
     axis 0 0 20   XYZ
    dof rx
    limits (-10.0 170.0)
  end
  begin
     id 4 
     name lfoot
     direction 0.0487203 -0.133858 0.989802   
     length 1.93375   
     axis -90 7.62852e-016 20   XYZ
    dof rx rz
    limits (-45.0 90.0)
           (-70.0 20.0)
  end
  begin
     id 5 
     name ltoes
     direction 1.53453e-011 -4.21783e-011 1   
     length 0.979747   
     axis -90 7.62852e-016 20   XYZ
    dof rx
    limits (-90.0 20.0)
  end
  begin
     id 6 
     name rhipjoint
     direction -0.694693 -0.703425 0.150315   
     length 2.56122  
     axis 0 0 0  XYZ 
  end
  begin
     id 7 
     name rfemur
     direction -0.34202 -0.939693 0   
     length 7.36786   
     axis 0 0 -20   XYZ
    dof rx ry rz
    limits (-160.0 20.0)
           (-70.0 70.0)
           (-70.0 60.0)
  end
  begin
     id 8 
     name rtibia
     direction -0.34202 -0.939693 0   
     length 8.07288   
     axis 0 0 -20   XYZ
    dof rx
    limits (-10.0 170.0)
 end
 begin
     id 9 
     name rfoot
     direction -0.0428397 -0.117701 0.992125   
     length 1.88295  
     axis -90 -7.62852e-016 -20   XYZ
    dof rx rz
    limits (-45.0 90.0)
           (-20.0 70.0)
  end
  begin
     id 10 
     name rtoes
     direction -1.53456e-011 -4.2187e-011 1   
     length 0.955578   
     axis -90 -7.62852e-016 -20   XYZ
    dof rx
    limits (-90.0 20.0)
  end
  begin
     id 11 
     name lowerback
     direction 0.0288145 0.999398 -0.0193241   
     length 1.92149   
     axis 0 0 0   XYZ
    dof rx ry rz
    limits (-20.0 45.0)
           (-30.0 30.0)
           (-30.0 30.0)
  end
  begin
     id 12 
     name upperback
     direction 0.0233784 0.998099 0.0570278   
     length 1.90435   
     axis 0 0 0   XYZ
    dof rx ry rz
    limits (-20.0 45.0)
           (-30.0 30.0)
           (-30.0 30.0)
  end
  begin
     id 13 
     name thorax
     direction 0.0096694 0.997833 0.0650817   
     length 1.9111   
     axis 0 0 0   XYZ
    dof rx ry rz
    limits (-20.0 45.0)
           (-30.0 30.0)
           (-30.0 30.0)
  end
  begin
     id 14 
     name lowerneck
     direction 0.00516803 0.999916 0.0118722   
     length 1.74664   
     axis 0 0 0   XYZ
    dof rx ry rz
    limits (-20.0 45.0)
           (-30.0 30.0)
           (-30.0 30.0)
  end
  begin
     id 15 
     name upperneck
     direction -0.0510851 0.996117 -0.071696   
     length 1.68498   
     axis 0 0 0   XYZ
    dof rx ry rz
    limits (-20.0 45.0)
           (-30.0 30.0)
           (-30.0 30.0)
  end
  begin
     id 16
     name head
     direction -0.019188 0.999436 -0.0275702  
     length 1.83483  
     axis 0 0 0   XYZ
    dof rx ry rz
    limits (-20.0 45.0)
           (-30.0 30.0)
           (-30.0 30.0)
  end
  begin
     id 17 
     name lclavicle
     direction 0.967006 0.248456 -0.0562957  
     length 3.39395  
     axis 0 0 0   XYZ
    dof ry rz
    limits (-20.0 10.0)
           (0.0 20.0)
  end
  begin
     id 18 
     name lhumerus
     direction 1 -4.48962e-011 -5.62711e-019   
     length 5.24318   
     axis 180 -30 -90   XYZ
    dof rx ry rz
    limits (-60.0 90.0)
           (-90.0 90.0)
           (-90.0 90.0)
  end
  begin
     id 19
     name lradius
     direction 1 -4.48966e-011 7.90625e-027   
     length 2.98999   
     axis 180 -30 -90   XYZ
    dof rx
    limits (-10.0 170.0)
  end
  begin
     id 20
     name lwrist
     direction 1 -4.48959e-011 1.61068e-026   
     length 1.49499   
     axis -9.31229e-015 90 90   XYZ
    dof ry
    limits (-180.0 0.0)
 end
  begin
     id 21 
     name lhand
     direction 1 -4.49017e-011 3.22136e-026   
     length 0.726745   
     axis -2.0555e-014 90 90   XYZ
    dof rx rz
    limits (-90.0 90.0)
           (-45.0 45.0)
  end
  begin
     id 22 
     name lfingers
     direction 1 -4.4898e-011 6.44272e-026   
     length 0.58592   
     axis -4.11101e-014 90 90   XYZ
    dof rx
    limits (0.0 90.0)
  end
  begin
     id 23
     name lthumb
     direction 0.707107 -6.34922e-011 0.707107   
     length 0.841268   
     axis -90 45 2.85299e-015   XYZ
    dof rx rz
    limits (-45.0 45.0)
           (-45.0 45.0)
  end
  begin
     id 24 
     name rclavicle
     direction -0.972232 0.230238 0.0419005   
     length 3.40416  
     axis 0 0 0   XYZ 
    dof ry rz
    limits (-10.0 20.0)
           (-20.0 0.0)
  end
  begin
     id 25 
     name rhumerus
     direction -1 -4.48976e-011 2.48487e-027  
     length 5.37045   
     axis 180 30 90   XYZ
    dof rx ry rz
    limits (-90.0 60.0)
           (-90.0 90.0)
           (-90.0 90.0)
  end
  begin
     id 26 
     name rradius
     direction -1 -4.48942e-011 7.87951e-027   
     length 2.92792   
     axis 180 30 90   XYZ
    dof rx
    limits (-10.0 170.0)
  end
  begin
     id 27 
     name rwrist
     direction -1 -4.48969e-011 1.61068e-026   
     length 1.46396   
     axis -9.31229e-015 -90 -90   XYZ
    dof ry
    limits (-180.0 0.0)
  end
  begin
     id 28
     name rhand
     direction -1 -4.49043e-011 3.22136e-026   
     length 0.784497   
     axis -2.0555e-014 -90 -90   XYZ
    dof rx rz
    limits (-90.0 90.0)
           (-45.0 45.0)
  end
  begin
     id 29
     name rfingers
     direction -1 -4.48823e-011 6.44272e-026   
     length 0.632482   
     axis -4.11101e-014 -90 -90   XYZ
    dof rx
    limits (0.0 90.0)
  end
  begin
     id 30
     name rthumb
     direction -0.707107 -6.34923e-011 0.707107   
     length 0.908121   
     axis -90 -45 -2.85299e-015   XYZ
    dof rx rz
    limits (-45.0 45.0)
           (-45.0 45.0)
  end
:hierarchy
  begin
    root lhipjoint rhipjoint lowerback
    lhipjoint lfemur
    lfemur ltibia
    ltibia lfoot
    lfoot ltoes
    rhipjoint rfemur
    rfemur rtibia
    rtibia rfoot
    rfoot rtoes
    lowerback upperback
    upperback thorax
    thorax lowerneck lclavicle rclavicle
    lowerneck upperneck
    upperneck head
    lclavicle lhumerus
    lhumerus lradius
    lradius lwrist
    lwrist lhand lthumb
    lhand lfingers
    rclavicle rhumerus
    rhumerus rradius
    rradius rwrist
    rwrist rhand rthumb
    rhand rfingers
  end

#!OML:ASF E:\Style6\Style6.ASF
:FULLY-SPECIFIED
:DEGREES
1732
root 0.759533 18.0243 -0.0252045 18.8884 7.222 -0.347285
lowerback 11.4202 -0.152638 6.75683
upperback -5.53089 1.69328 6.40875
thorax -12.6038 0.593394 2.89799
lowerneck -5.76011 -0.239252 2.9561
upperneck -12.9184 -1.63726 -13.0285
head -2.96292 -0.549578 -4.46651
rclavicle 1.15295e-014 -6.36111e-014
rhumerus 41.2865 -36.1279 -6.76312
rradius 43.5139
rwrist 45.6713
rhand -20.1125 8.69764
rfingers 7.12502
rthumb 6.23124 -21.1907
lclavicle 1.15295e-014 -6.36111e-014
lhumerus 9.3749 14.4169 -4.11103
lradius 51.3687
lwrist -24.1263
lhand -27.825 26.5007
lfingers 7.12502
lthumb -1.21694 56.4769
rfemur -30.2215 -0.763517 17.0914
rtibia 23.9449
rfoot -8.72817 -10.9783
rtoes -1.09496
lfemur -33.0446 -7.09978 -16.2257
ltibia 27.0606
lfoot -6.93794 2.1263
ltoes -18.4034
1733
root 0.750046 18.0299 -0.0217185 18.8827 7.17607 -0.384532
lowerback 11.3155 -0.17683 6.79777
upperback -5.51847 1.65236 6.40083
thorax -12.5239 0.571136 2.8728
lowerneck -5.81179 -0.190104 2.96069
upperneck -12.9153 -1.55998 -12.9252
head -2.94735 -0.516626 -4.43574
rclavicle 3.57812e-015 -1.74931e-014
rhumerus 41.4294 -36.317 -6.85297
rradius 43.2487
rwrist 45.7556
rhand -20.2204 8.6923
rfingers 7.12502
rthumb 6.12707 -21.1991
lclavicle 3.57812e-015 -1.74931e-014
lhumerus 9.47718 14.57 -4.02147
lradius 50.9346
lwrist -24.2539
lhand -27.7262 26.1451
lfingers 7.12502
lthumb -1.12145 56.1219
rfemur -30.1816 -0.707554 17.1599
rtibia 23.8811
rfoot -8.52688 -11.0695
rtoes -3.25433
lfemur -32.9396 -7.21573 -16.117
ltibia 26.9432
lfoot -6.87203 2.35357
ltoes -18.9567
1734
root 0.740184 18.0317 -0.0185552 18.8439 7.08396 -0.357332
lowerback 11.2922 -0.191634 6.75837
upperback -5.51573 1.61907 6.37334
thorax -12.5055 0.557204 2.87082
lowerneck -5.94278 -0.143595 3.08843
upperneck -12.8023 -1.49506 -12.9956
head -2.88656 -0.496796 -4.47928
rclavicle 3.97569e-015 -3.81667e-014
rhumerus 41.6526 -36.5413 -7.06134
rradius 43.0078
rwrist 46.0652
rhand -20.1215 8.86
rfingers 7.12502
rthumb 6.22255 -21.0286
lclavicle 3.97569e-015 -3.81667e-014
lhumerus 9.55435 14.6743 -3.94409
lradius 50.5004
lwrist -24.2709
lhand -27.7194 25.9857
lfingers 7.12502
lthumb -1.11489 55.9626
rfemur -30.1302 -0.608712 17.1305
rtibia 23.8643
rfoot -8.44881 -11.0869
rtoes -4.08007
lfemur -32.7863 -7.26682 -16.1077
ltibia 26.8128
lfoot -6.85434 2.46075
ltoes -18.9204
1735
root 0.730753 18.0304 -0.0147145 18.8218 6.9956 -0.326693
lowerback 11.2578 -0.205055 6.71575
upperback -5.54599 1.5899 6.35098
thorax -12.519 0.545239 2.87704
lowerneck -5.9219 -0.126554 3.18451
upperneck -12.7869 -1.48005 -13.0616
head -2.8839 -0.491795 -4.51619
rclavicle -1.15295e-014 -2.70347e-014
rhumerus 41.761 -36.6405 -7.14299
rradius 42.805
rwrist 46.2249
rhand -19.9094 9.04128
rfingers 7.12502
rthumb 6.42728 -20.8412
lclavicle -1.15295e-014 -2.70347e-014
lhumerus 9.5825 14.7273 -3.87022
lradius 50.1644
lwrist -24.2914
lhand -27.61 26.0371
lfingers 7.12502
lthumb -1.00923 56.0145
rfemur -30.0989 -0.555693 17.1135
rtibia 23.8501
rfoot -8.38583 -11.083
rtoes -4.6349
lfemur -32.6975 -7.34496 -16.0879
ltibia 26.704
lfoot -6.86339 2.61388
ltoes -18.8479
1736
root 0.72117 18.0311 -0.0101877 18.8166 6.92279 -0.222403
lowerback 11.1963 -0.194396 6.61522
upperback -5.58428 1.57707 6.29248
thorax -12.524 0.54384 2.87146
lowerneck -6.17472 -0.156531 3.22546
upperneck -12.4495 -1.48587 -13.0494
head -2.74278 -0.51759 -4.51642
rclavicle 4.37326e-015 4.77083e-014
rhumerus 41.7369 -36.7486 -7.13352
rradius 42.5569
rwrist 46.4103
rhand -19.9509 9.13404
rfingers 7.12502
rthumb 6.38718 -20.7497
lclavicle 4.37326e-015 4.77083e-014
lhumerus 9.6286 14.714 -3.79983
lradius 49.9473
lwrist -24.2742
lhand -27.5558 26.0069
lfingers 7.12502
lthumb -0.956932 55.9845
rfemur -30.0748 -0.512799 17.0138
rtibia 23.8439
rfoot -8.35632 -11.0661
rtoes -4.99675
lfemur -32.5817 -7.34966 -16.1874
ltibia 26.5861
lfoot -6.81592 2.70649
ltoes -19.715
1737
root 0.711802 18.0336 -0.00559183 18.781 6.89168 -0.200789
lowerback 11.1693 -0.196462 6.6106
upperback -5.61323 1.569 6.2576
thorax -12.5395 0.538044 2.83785
lowerneck -6.27566 -0.190195 3.15725
upperneck -12.2749 -1.49984 -12.9208
head -2.67612 -0.53475 -4.46298
rclavicle -4.37326e-015 6.04305e-014
rhumerus 41.7332 -36.911 -7.15876
rradius 42.3212
rwrist 46.7333
rhand -19.9903 9.24463
rfingers 7.12502
rthumb 6.34915 -20.6402
lclavicle -4.37326e-015 6.04305e-014
lhumerus 9.6428 14.7351 -3.70418
lradius 49.7552
lwrist -24.3564
lhand -27.5072 25.955
lfingers 7.12502
lthumb -0.909947 55.9328
rfemur -30.0004 -0.418281 16.9881
rtibia 23.8064
rfoot -8.36594 -11.0797
rtoes -4.57764
lfemur -32.4547 -7.36595 -16.1834
ltibia 26.498
lfoot -6.80445 2.7607
ltoes -20.2296
1738
root 0.701198 18.0355 -0.00107443 18.699 6.83109 -0.273625
lowerback 11.1915 -0.212705 6.61893
upperback -5.60133 1.55288 6.28484
thorax -12.5405 0.531268 2.867
lowerneck -6.05976 -0.1846 2.99171
upperneck -12.5327 -1.49556 -12.7163
head -2.78835 -0.514948 -4.37269
rclavicle 3.97569e-015 -7.95139e-015
rhumerus 41.7102 -37.0006 -7.0642
rradius 42.16
rwrist 46.7066
rhand -19.7738 9.2372
rfingers 7.12502
rthumb 6.55816 -20.6413
lclavicle 3.97569e-015 -7.95139e-015
lhumerus 9.62126 14.9027 -3.57378
lradius 49.515
lwrist -24.5963
lhand -27.2276 25.9613
lfingers 7.12502
lthumb -0.639884 55.9401
rfemur -29.8773 -0.253854 17.0606
rtibia 23.7367
rfoot -8.34009 -11.113
rtoes -4.68633
lfemur -32.3219 -7.36718 -16.0749
ltibia 26.4485
lfoot -6.8498 2.87803
ltoes -20.6149
1739
root 0.691483 18.0372 0.00136325 18.6884 6.79807 -0.411862
lowerback 11.1578 -0.244867 6.69568
upperback -5.61991 1.52454 6.32402
thorax -12.5423 0.513544 2.87456
lowerneck -5.96964 -0.147195 3.01146
upperneck -12.6435 -1.45337 -12.6731
head -2.83275 -0.489507 -4.36364
rclavicle -9.93923e-015 -1.74931e-014
rhumerus 41.7471 -37.0831 -7.0778
rradius 41.9834
rwrist 46.7154
rhand -19.6691 9.10327
rfingers 7.12502
rthumb 6.65928 -20.772
lclavicle -9.93923e-015 -1.74931e-014
lhumerus 9.56442 15.0416 -3.50767
lradius 49.2185
lwrist -24.7989
lhand -27.0885 25.9658
lfingers 7.12502
lthumb -0.505533 55.945
rfemur -29.8419 -0.106122 17.2151
rtibia 23.6517
rfoot -8.28583 -11.1845
rtoes -5.04033
lfemur -32.3045 -7.36988 -15.8677
ltibia 26.412
lfoot -6.88233 2.95058
ltoes -20.2122
1740
root 0.683171 18.0382 0.00343215 18.7069 6.75456 -0.478693
lowerback 11.0975 -0.266519 6.75113
upperback -5.65913 1.50119 6.32487
thorax -12.5504 0.497546 2.85064
lowerneck -6.09829 -0.10713 3.07976
upperneck -12.4766 -1.38461 -12.679
head -2.75642 -0.468418 -4.37617
rclavicle -5.96354e-015 -6.36111e-015
rhumerus 41.7349 -37.178 -7.08775
rradius 41.8116
rwrist 46.8109
rhand -19.5449 8.95851
rfingers 7.12502
rthumb 6.77916 -20.913
lclavicle -5.96354e-015 -6.36111e-015
lhumerus 9.4917 15.0741 -3.49259
lradius 48.8828
lwrist -24.9603
lhand -27.1507 25.6845
lfingers 7.12502
lthumb -0.565611 55.6635
rfemur -29.8435 -0.00816439 17.2961
rtibia 23.598
rfoot -8.21502 -11.2545
rtoes -6.14126
lfemur -32.2952 -7.39727 -15.7431
ltibia 26.3669
lfoot -6.84642 3.04734
ltoes -20.0495
